<svg width="154" height="25" viewBox="0 0 154 25" fill="none" xmlns="http://www.w3.org/2000/svg">
<path d="M5.42188 19.2812C4.42969 19.2812 3.60547 19.1914 2.94922 19.0117C2.30078 18.832 1.77734 18.6094 1.37891 18.3438C0.988281 18.0703 0.6875 17.8008 0.476562 17.5352C0.40625 17.4336 0.34375 17.3359 0.289062 17.2422C0.234375 17.1484 0.195312 17.043 0.171875 16.9258C0.140625 16.7695 0.109375 16.5664 0.078125 16.3164C0.046875 16.0586 0.0429688 15.7617 0.0664062 15.4258C0.0742188 15.2852 0.101562 15.1875 0.148438 15.1328C0.203125 15.0703 0.292969 15.0234 0.417969 14.9922C0.644531 14.9375 0.9375 14.8906 1.29688 14.8516C1.66406 14.8047 1.92578 14.7812 2.08203 14.7812C2.24609 14.7812 2.37891 14.8125 2.48047 14.875C2.58203 14.9375 2.70312 15.043 2.84375 15.1914C3 15.3555 3.26953 15.5664 3.65234 15.8242C4.03516 16.0742 4.625 16.1992 5.42188 16.1992C6.1875 16.1992 6.76562 16.0391 7.15625 15.7188C7.54688 15.3984 7.74219 14.9531 7.74219 14.3828C7.74219 14.0781 7.64844 13.793 7.46094 13.5273C7.28125 13.2539 6.94922 12.9844 6.46484 12.7188C5.98047 12.4453 5.28906 12.1602 4.39062 11.8633C2.90625 11.3633 1.83594 10.7422 1.17969 10C0.523438 9.25781 0.195312 8.22656 0.195312 6.90625C0.195312 5.8125 0.460938 4.89844 0.992188 4.16406C1.52344 3.42969 2.25781 2.875 3.19531 2.5C4.13281 2.125 5.21484 1.9375 6.44141 1.9375C7.38672 1.9375 8.16797 2.05078 8.78516 2.27734C9.41016 2.49609 9.89453 2.74609 10.2383 3.02734C10.582 3.30078 10.8047 3.52344 10.9062 3.69531C10.9688 3.79688 11.0078 3.875 11.0234 3.92969C11.0469 3.97656 11.0625 4.04297 11.0703 4.12891C11.0938 4.37109 11.1016 4.64062 11.0938 4.9375C11.0859 5.23438 11.0586 5.57031 11.0117 5.94531C10.9883 6.07031 10.9453 6.15625 10.8828 6.20312C10.8281 6.24219 10.7422 6.26172 10.625 6.26172C9.86719 6.27734 9.28125 6.23828 8.86719 6.14453C8.70312 6.10547 8.59375 6.06641 8.53906 6.02734C8.48438 5.98828 8.41406 5.92578 8.32812 5.83984C8.20312 5.69141 8.00391 5.51953 7.73047 5.32422C7.46484 5.12109 7.03516 5.01953 6.44141 5.01953C5.62109 5.01953 5.03906 5.20703 4.69531 5.58203C4.35156 5.94922 4.17969 6.36328 4.17969 6.82422C4.17969 7.37109 4.43359 7.80078 4.94141 8.11328C5.44922 8.41797 6.25 8.76562 7.34375 9.15625C8.25781 9.47656 9.04297 9.82422 9.69922 10.1992C10.3555 10.5742 10.8555 11.0547 11.1992 11.6406C11.5508 12.2266 11.7266 13 11.7266 13.9609C11.7266 15.1562 11.4492 16.1484 10.8945 16.9375C10.3477 17.7266 9.59766 18.3164 8.64453 18.707C7.69922 19.0898 6.625 19.2812 5.42188 19.2812ZM17.3516 19.293C16.2031 19.293 15.2891 18.9727 14.6094 18.332C13.9375 17.6836 13.6016 16.793 13.6016 15.6602C13.6016 15.0742 13.707 14.5312 13.918 14.0312C14.1367 13.5234 14.5117 13.0781 15.043 12.6953C15.582 12.3047 16.332 11.9922 17.293 11.7578C18.2617 11.5234 19.4961 11.3867 20.9961 11.3477C20.9961 10.6367 20.8164 10.125 20.457 9.8125C20.1055 9.5 19.5742 9.34375 18.8633 9.34375C18.2227 9.34375 17.6992 9.45312 17.293 9.67188C16.8867 9.89062 16.6328 10.0391 16.5312 10.1172C16.4219 10.2109 16.2891 10.2461 16.1328 10.2227C15.9219 10.1914 15.6953 10.1367 15.4531 10.0586C15.2188 9.98047 14.9648 9.89062 14.6914 9.78906C14.6523 9.77344 14.6094 9.75 14.5625 9.71875C14.5156 9.67969 14.4883 9.625 14.4805 9.55469C14.4805 9.51562 14.4844 9.46875 14.4922 9.41406C14.5 9.35156 14.5195 9.24219 14.5508 9.08594C14.582 8.92969 14.6289 8.73828 14.6914 8.51172C14.7539 8.27734 14.8125 8.09766 14.8672 7.97266C14.9375 7.83984 15.0547 7.71484 15.2188 7.59766C15.3516 7.48828 15.7539 7.3125 16.4258 7.07031C17.0977 6.82812 18.0703 6.70703 19.3438 6.70703C22.8516 6.70703 24.6055 8.41406 24.6055 11.8281V18.4609C24.6055 18.6094 24.5625 18.7383 24.4766 18.8477C24.3984 18.9492 24.2617 19 24.0664 19H22.3086C22.1836 19 22.0703 18.9844 21.9688 18.9531C21.875 18.9141 21.7852 18.8438 21.6992 18.7422L20.9727 17.8047H20.8906C20.5312 18.3281 20.0469 18.707 19.4375 18.9414C18.8359 19.1758 18.1406 19.293 17.3516 19.293ZM18.6406 16.5742C19.3594 16.5742 19.9023 16.3906 20.2695 16.0234C20.6367 15.6562 20.8711 15.2773 20.9727 14.8867V13.5859C19.8867 13.5859 19.0703 13.6719 18.5234 13.8438C17.9844 14.0078 17.625 14.2266 17.4453 14.5C17.2656 14.7656 17.1758 15.0547 17.1758 15.3672C17.1758 15.8203 17.3164 16.1367 17.5977 16.3164C17.8789 16.4883 18.2266 16.5742 18.6406 16.5742ZM38.3867 8.23047C38.6758 7.87891 39.1211 7.53906 39.7227 7.21094C40.332 6.875 41.1875 6.70703 42.2891 6.70703C43.8516 6.70703 44.9805 7.10938 45.6758 7.91406C46.3711 8.71875 46.7188 9.92578 46.7188 11.5352V18.3789C46.7188 18.6133 46.668 18.7773 46.5664 18.8711C46.4727 18.957 46.3086 19 46.0742 19H43.6602C43.4258 19 43.2578 18.957 43.1562 18.8711C43.0625 18.7773 43.0156 18.6133 43.0156 18.3789V12.1445C43.0156 11.2695 42.8555 10.6445 42.5352 10.2695C42.2148 9.88672 41.7344 9.69531 41.0938 9.69531C40.5234 9.69531 40.0703 9.82422 39.7344 10.082C39.4062 10.332 39.1719 10.6719 39.0312 11.1016V18.3789C39.0312 18.6133 38.9805 18.7773 38.8789 18.8711C38.7852 18.957 38.6211 19 38.3867 19H35.9727C35.7383 19 35.5703 18.957 35.4688 18.8711C35.375 18.7773 35.3281 18.6133 35.3281 18.3789V12.1445C35.3281 11.293 35.1523 10.6719 34.8008 10.2812C34.4492 9.89062 33.9883 9.69531 33.418 9.69531C32.8789 9.69531 32.4453 9.82812 32.1172 10.0938C31.7891 10.3594 31.5352 10.6953 31.3555 11.1016V18.3789C31.3555 18.6133 31.3047 18.7773 31.2031 18.8711C31.1094 18.957 30.9453 19 30.7109 19H28.2969C28.0625 19 27.8945 18.957 27.793 18.8711C27.6992 18.7773 27.6523 18.6133 27.6523 18.3789V8.55859C27.6523 8.37109 27.6914 8.22656 27.7695 8.125C27.9336 7.90625 28.1289 7.68359 28.3555 7.45703C28.5898 7.23047 28.875 6.98828 29.2109 6.73047C29.3125 6.65234 29.4102 6.61328 29.5039 6.61328C29.5898 6.61328 29.6875 6.65234 29.7969 6.73047C30.125 6.98828 30.4062 7.23438 30.6406 7.46875C30.875 7.70312 31.082 7.94531 31.2617 8.19531H31.3203C31.5859 7.85938 32 7.52734 32.5625 7.19922C33.125 6.87109 33.9297 6.70703 34.9766 6.70703C35.9766 6.70703 36.7188 6.85938 37.2031 7.16406C37.6875 7.46094 38.082 7.81641 38.3867 8.23047ZM50.2695 24.6367C49.9805 24.6367 49.7617 24.6055 49.6133 24.543C49.4648 24.4883 49.3398 24.418 49.2383 24.332C49.0352 24.1367 48.8164 23.8633 48.582 23.5117C48.5273 23.4258 48.4688 23.3242 48.4062 23.207C48.3438 23.0977 48.3125 23.0039 48.3125 22.9258C48.3125 22.8398 48.332 22.7617 48.3711 22.6914C48.4102 22.6211 48.457 22.5547 48.5117 22.4922C48.6367 22.3281 48.7891 22.1562 48.9688 21.9766C49.1484 21.8047 49.3008 21.668 49.4258 21.5664C49.5117 21.4961 49.582 21.4492 49.6367 21.4258C49.6914 21.4102 49.7383 21.4023 49.7773 21.4023C49.8164 21.4023 49.875 21.4102 49.9531 21.4258C50.0312 21.4414 50.1484 21.4492 50.3047 21.4492C50.8438 21.4492 51.4062 21.2734 51.9922 20.9219C52.5781 20.5703 53.1562 19.9102 53.7266 18.9414C53.1328 18.3945 52.5469 17.7109 51.9688 16.8906C51.3984 16.0625 50.8828 15.168 50.4219 14.207C49.9609 13.2383 49.5898 12.2734 49.3086 11.3125C49.0352 10.3516 48.8984 9.46484 48.8984 8.65234C48.8984 8.48047 48.9414 8.34375 49.0273 8.24219C49.3867 7.79688 49.8984 7.33203 50.5625 6.84766C50.6797 6.76953 50.7852 6.73047 50.8789 6.73047C50.9805 6.73047 51.0859 6.76953 51.1953 6.84766C51.5547 7.10547 51.8555 7.34766 52.0977 7.57422C52.3477 7.80078 52.5586 8.02344 52.7305 8.24219C52.8164 8.34375 52.8594 8.48828 52.8594 8.67578V8.62891C52.8594 9.24609 52.9336 9.89844 53.082 10.5859C53.2305 11.2734 53.4336 11.9453 53.6914 12.6016C53.9492 13.25 54.2383 13.8398 54.5586 14.3711C54.8789 14.8945 55.2109 15.3125 55.5547 15.625H55.6133C55.7695 15.3281 55.9414 14.9023 56.1289 14.3477C56.3242 13.7852 56.5078 13.1641 56.6797 12.4844C56.8516 11.7969 56.9922 11.1172 57.1016 10.4453C57.2109 9.76562 57.2656 9.16406 57.2656 8.64062V8.67578C57.2656 8.48828 57.3047 8.34375 57.3828 8.24219C57.5625 8.02344 57.7734 7.80078 58.0156 7.57422C58.2578 7.34766 58.5508 7.10547 58.8945 6.84766C59.0039 6.76953 59.1055 6.73047 59.1992 6.73047C59.3086 6.73047 59.4102 6.76953 59.5039 6.84766C59.8555 7.10547 60.1523 7.34766 60.3945 7.57422C60.6367 7.80078 60.8438 8.02344 61.0156 8.24219C61.0938 8.34375 61.1328 8.48438 61.1328 8.66406C61.125 9.375 60.9883 10.3047 60.7227 11.4531C60.457 12.5938 60.0703 13.832 59.5625 15.168C59.0547 16.5039 58.4375 17.8125 57.7109 19.0938C56.625 21.0234 55.4531 22.4297 54.1953 23.3125C52.9375 24.1953 51.6289 24.6367 50.2695 24.6367ZM61.1328 8.64062V8.67578V8.66406C61.1328 8.65625 61.1328 8.64844 61.1328 8.64062ZM48.8984 8.64062V8.65234V8.67578V8.64062ZM66.9805 9.22656H67.0273C67.6133 7.60156 68.668 6.78906 70.1914 6.78906C70.3867 6.78906 70.5469 6.80078 70.6719 6.82422C70.7969 6.83984 70.8828 6.85547 70.9297 6.87109C71.0469 6.91016 71.1055 7 71.1055 7.14062V9.96484C71.1055 10.207 70.9648 10.2734 70.6836 10.1641C70.5898 10.125 70.4531 10.0859 70.2734 10.0469C70.1016 10 69.8594 9.97656 69.5469 9.97656C68.7422 9.97656 68.1133 10.2734 67.6602 10.8672C67.207 11.4531 66.9805 12.2539 66.9805 13.2695V18.3789C66.9805 18.6133 66.9297 18.7773 66.8281 18.8711C66.7344 18.957 66.5703 19 66.3359 19H63.9219C63.6875 19 63.5195 18.957 63.418 18.8711C63.3242 18.7773 63.2773 18.6133 63.2773 18.3789V8.55859C63.2773 8.37109 63.3164 8.22656 63.3945 8.125C63.5586 7.90625 63.7539 7.68359 63.9805 7.45703C64.2148 7.23047 64.5 6.98828 64.8359 6.73047C64.8984 6.68359 64.9609 6.65234 65.0234 6.63672C65.0859 6.62109 65.1406 6.61328 65.1875 6.61328C65.2969 6.61328 65.4062 6.65234 65.5156 6.73047C66.1641 7.23828 66.6172 7.67188 66.875 8.03125C66.9453 8.125 66.9805 8.23438 66.9805 8.35938V9.22656ZM77.0469 19.293C74.2656 19.293 72.875 17.6094 72.875 14.2422L72.8633 8.28906C72.8633 8.10156 72.9023 7.95703 72.9805 7.85547C73.3086 7.42578 73.7891 6.96094 74.4219 6.46094C74.5312 6.38281 74.6289 6.34375 74.7148 6.34375C74.8164 6.34375 74.9141 6.38281 75.0078 6.46094C75.3438 6.71875 75.625 6.96094 75.8516 7.1875C76.0859 7.41406 76.2852 7.63672 76.4492 7.85547C76.5273 7.95703 76.5664 8.10156 76.5664 8.28906V13.9141C76.5664 15.6094 77.2383 16.457 78.582 16.457C79.2461 16.457 79.7773 16.2266 80.1758 15.7656C80.5742 15.2969 80.7734 14.6641 80.7734 13.8672V8.28906C80.7734 8.10156 80.8125 7.95703 80.8906 7.85547C81.2188 7.42578 81.6992 6.96094 82.332 6.46094C82.4414 6.38281 82.5391 6.34375 82.625 6.34375C82.7266 6.34375 82.8242 6.38281 82.918 6.46094C83.2539 6.71875 83.5352 6.96094 83.7617 7.1875C83.9961 7.41406 84.1953 7.63672 84.3594 7.85547C84.4375 7.95703 84.4766 8.10156 84.4766 8.28906V18.4609C84.4766 18.6094 84.4258 18.7383 84.3242 18.8477C84.2227 18.9492 84.0938 19 83.9375 19H82.1797C82.0547 19 81.9414 18.9844 81.8398 18.9531C81.7461 18.9141 81.6562 18.8438 81.5703 18.7422L80.8438 17.8047H80.7617C80.6367 17.9844 80.4414 18.1914 80.1758 18.4258C79.918 18.6602 79.5391 18.8633 79.0391 19.0352C78.5469 19.207 77.8828 19.293 77.0469 19.293ZM91.3555 18.3789C91.3555 18.6133 91.3047 18.7773 91.2031 18.8711C91.1094 18.957 90.9453 19 90.7109 19H88.2969C88.0625 19 87.8945 18.957 87.793 18.8711C87.6992 18.7773 87.6523 18.6133 87.6523 18.3789V2.52344C87.6523 2.33594 87.6914 2.19141 87.7695 2.08984C88.0977 1.66016 88.5781 1.19531 89.2109 0.695312C89.3203 0.617187 89.418 0.578125 89.5039 0.578125C89.6055 0.578125 89.7031 0.617187 89.7969 0.695312C90.1328 0.953125 90.4141 1.19531 90.6406 1.42188C90.875 1.64844 91.0742 1.87109 91.2383 2.08984C91.3164 2.19141 91.3555 2.33594 91.3555 2.52344V11.7227H91.4961C92.6836 11.7227 93.4883 11.5117 93.9102 11.0898C94.3398 10.6602 94.5547 10.0664 94.5547 9.30859V8.67578C94.5547 8.48828 94.5938 8.34375 94.6719 8.24219C95 7.8125 95.4805 7.34766 96.1133 6.84766C96.2227 6.76953 96.3203 6.73047 96.4062 6.73047C96.5078 6.73047 96.6055 6.76953 96.6992 6.84766C97.0352 7.10547 97.3164 7.34766 97.543 7.57422C97.7773 7.80078 97.9766 8.02344 98.1406 8.24219C98.2188 8.34375 98.2578 8.48828 98.2578 8.67578V9.30859C98.2578 9.75391 98.168 10.2461 97.9883 10.7852C97.8164 11.3242 97.5 11.8008 97.0391 12.2148C96.5781 12.6289 95.9219 12.8711 95.0703 12.9414V13C95.7266 13.2891 96.293 13.6719 96.7695 14.1484C97.2461 14.625 97.6445 15.1367 97.9648 15.6836C98.2852 16.2227 98.5312 16.7422 98.7031 17.2422C98.8828 17.7344 99 18.1523 99.0547 18.4961C99.1094 18.832 98.9961 19 98.7148 19H95.6328C95.3672 19 95.2148 18.8398 95.1758 18.5195C95.1211 18.1523 95 17.7227 94.8125 17.2305C94.6328 16.7305 94.3867 16.2422 94.0742 15.7656C93.7695 15.2891 93.3984 14.8945 92.9609 14.582C92.5312 14.2617 92.043 14.1016 91.4961 14.1016H91.3555V18.3789ZM104.434 19C103.629 19 103.016 18.8984 102.594 18.6953C102.18 18.4922 101.898 18.1602 101.75 17.6992C101.609 17.2383 101.539 16.625 101.539 15.8594V4.07031C101.539 3.84375 101.578 3.67188 101.656 3.55469C102.008 3.03906 102.5 2.49609 103.133 1.92578C103.25 1.83203 103.352 1.78516 103.438 1.78516C103.531 1.78516 103.629 1.83203 103.73 1.92578C104.074 2.22266 104.363 2.50781 104.598 2.78125C104.832 3.04688 105.035 3.30469 105.207 3.55469C105.285 3.67969 105.324 3.85156 105.324 4.07031V14.4648C105.324 14.9883 105.418 15.3633 105.605 15.5898C105.793 15.8164 106.145 15.9297 106.66 15.9297L110.258 15.918C110.445 15.918 110.586 15.9492 110.68 16.0117C110.883 16.1523 111.094 16.3203 111.312 16.5156C111.531 16.7109 111.762 16.9453 112.004 17.2188C112.082 17.3203 112.121 17.4023 112.121 17.4648C112.121 17.5352 112.082 17.6133 112.004 17.6992C111.762 17.9727 111.531 18.207 111.312 18.4023C111.094 18.5977 110.883 18.7656 110.68 18.9062C110.57 18.9688 110.43 19 110.258 19H104.434ZM116.938 19.293C115.789 19.293 114.875 18.9727 114.195 18.332C113.523 17.6836 113.188 16.793 113.188 15.6602C113.188 15.0742 113.293 14.5312 113.504 14.0312C113.723 13.5234 114.098 13.0781 114.629 12.6953C115.168 12.3047 115.918 11.9922 116.879 11.7578C117.848 11.5234 119.082 11.3867 120.582 11.3477C120.582 10.6367 120.402 10.125 120.043 9.8125C119.691 9.5 119.16 9.34375 118.449 9.34375C117.809 9.34375 117.285 9.45312 116.879 9.67188C116.473 9.89062 116.219 10.0391 116.117 10.1172C116.008 10.2109 115.875 10.2461 115.719 10.2227C115.508 10.1914 115.281 10.1367 115.039 10.0586C114.805 9.98047 114.551 9.89062 114.277 9.78906C114.238 9.77344 114.195 9.75 114.148 9.71875C114.102 9.67969 114.074 9.625 114.066 9.55469C114.066 9.51562 114.07 9.46875 114.078 9.41406C114.086 9.35156 114.105 9.24219 114.137 9.08594C114.168 8.92969 114.215 8.73828 114.277 8.51172C114.34 8.27734 114.398 8.09766 114.453 7.97266C114.523 7.83984 114.641 7.71484 114.805 7.59766C114.938 7.48828 115.34 7.3125 116.012 7.07031C116.684 6.82812 117.656 6.70703 118.93 6.70703C122.438 6.70703 124.191 8.41406 124.191 11.8281V18.4609C124.191 18.6094 124.148 18.7383 124.062 18.8477C123.984 18.9492 123.848 19 123.652 19H121.895C121.77 19 121.656 18.9844 121.555 18.9531C121.461 18.9141 121.371 18.8438 121.285 18.7422L120.559 17.8047H120.477C120.117 18.3281 119.633 18.707 119.023 18.9414C118.422 19.1758 117.727 19.293 116.938 19.293ZM118.227 16.5742C118.945 16.5742 119.488 16.3906 119.855 16.0234C120.223 15.6562 120.457 15.2773 120.559 14.8867V13.5859C119.473 13.5859 118.656 13.6719 118.109 13.8438C117.57 14.0078 117.211 14.2266 117.031 14.5C116.852 14.7656 116.762 15.0547 116.762 15.3672C116.762 15.8203 116.902 16.1367 117.184 16.3164C117.465 16.4883 117.812 16.5742 118.227 16.5742ZM138.84 11.5352V18.3789C138.84 18.6133 138.789 18.7773 138.688 18.8711C138.594 18.957 138.43 19 138.195 19H135.781C135.547 19 135.379 18.957 135.277 18.8711C135.184 18.7773 135.137 18.6133 135.137 18.3789V12.1445C135.137 11.293 134.957 10.6719 134.598 10.2812C134.238 9.89062 133.75 9.69531 133.133 9.69531C132.516 9.69531 132.039 9.82812 131.703 10.0938C131.375 10.3594 131.121 10.6953 130.941 11.1016V18.3789C130.941 18.6133 130.891 18.7773 130.789 18.8711C130.695 18.957 130.531 19 130.297 19H127.883C127.648 19 127.48 18.957 127.379 18.8711C127.285 18.7773 127.238 18.6133 127.238 18.3789V8.55859C127.238 8.37109 127.277 8.22656 127.355 8.125C127.52 7.90625 127.715 7.68359 127.941 7.45703C128.176 7.23047 128.461 6.98828 128.797 6.73047C128.898 6.65234 128.996 6.61328 129.09 6.61328C129.176 6.61328 129.273 6.65234 129.383 6.73047C129.711 6.98828 129.992 7.23438 130.227 7.46875C130.461 7.70312 130.668 7.94531 130.848 8.19531H130.906C131.039 8.02344 131.238 7.82422 131.504 7.59766C131.77 7.36328 132.141 7.15625 132.617 6.97656C133.102 6.79688 133.719 6.70703 134.469 6.70703C135.203 6.70703 135.902 6.85547 136.566 7.15234C137.23 7.44922 137.773 7.94922 138.195 8.65234C138.625 9.35547 138.84 10.3164 138.84 11.5352ZM153.605 8.125V17.6289C153.605 19.9102 152.953 21.6484 151.648 22.8438C150.352 24.0391 148.57 24.6367 146.305 24.6367C145.367 24.6367 144.625 24.5664 144.078 24.4258C143.531 24.293 143.117 24.1641 142.836 24.0391C142.656 23.9531 142.539 23.8633 142.484 23.7695C142.406 23.6445 142.316 23.4609 142.215 23.2188C142.121 22.9766 142.031 22.7109 141.945 22.4219C141.922 22.3125 141.918 22.2305 141.934 22.1758C141.965 22.0977 142.023 22.0156 142.109 21.9297C142.25 21.7891 142.449 21.625 142.707 21.4375C142.973 21.25 143.176 21.1289 143.316 21.0742C143.465 21.0195 143.602 21.0273 143.727 21.0977C143.93 21.207 144.219 21.3281 144.594 21.4609C144.977 21.6016 145.512 21.6719 146.199 21.6719C147.293 21.6719 148.184 21.3906 148.871 20.8281C149.559 20.2656 149.902 19.3984 149.902 18.2266V17.8047H149.855C149.684 18.0234 149.461 18.2461 149.188 18.4727C148.914 18.6992 148.559 18.8906 148.121 19.0469C147.691 19.2031 147.137 19.2812 146.457 19.2812C145.277 19.2812 144.309 19.0273 143.551 18.5195C142.801 18.0039 142.246 17.2969 141.887 16.3984C141.535 15.5 141.359 14.4766 141.359 13.3281C141.359 12.0703 141.566 10.9414 141.98 9.94141C142.395 8.94141 143.09 8.15234 144.066 7.57422C145.043 6.98828 146.379 6.69531 148.074 6.69531C149.09 6.69531 149.941 6.76953 150.629 6.91797C151.324 7.06641 151.906 7.25 152.375 7.46875C152.844 7.6875 153.254 7.90625 153.605 8.125ZM147.945 9.53125C147.039 9.53125 146.348 9.83594 145.871 10.4453C145.395 11.0547 145.156 12 145.156 13.2812C145.156 15.2891 145.984 16.293 147.641 16.293C148.289 16.293 148.785 16.1602 149.129 15.8945C149.473 15.6289 149.73 15.293 149.902 14.8867V10.0469C149.73 9.92188 149.488 9.80469 149.176 9.69531C148.863 9.58594 148.453 9.53125 147.945 9.53125Z" fill="#FF9500"/>
</svg>
